<svg width="12" height="13" viewBox="0 0 12 13" fill="none" xmlns="http://www.w3.org/2000/svg">
<path d="M3.625 1.17H3.5C3.56875 1.17 3.625 1.1115 3.625 1.04V1.17H8.375V1.04C8.375 1.1115 8.43125 1.17 8.5 1.17H8.375V2.34H9.5V1.04C9.5 0.466375 9.05156 0 8.5 0H3.5C2.94844 0 2.5 0.466375 2.5 1.04V2.34H3.625V1.17ZM11.5 2.34H0.5C0.223437 2.34 0 2.57237 0 2.86V3.38C0 3.4515 0.05625 3.51 0.125 3.51H1.06875L1.45469 12.0087C1.47969 12.5629 1.92031 13 2.45312 13H9.54688C10.0813 13 10.5203 12.5645 10.5453 12.0087L10.9312 3.51H11.875C11.9438 3.51 12 3.4515 12 3.38V2.86C12 2.57237 11.7766 2.34 11.5 2.34ZM9.42656 11.83H2.57344L2.19531 3.51H9.80469L9.42656 11.83Z" fill="#AAAAAA"/>
</svg>
