<svg width="14" height="14" viewBox="0 0 14 14" fill="none" xmlns="http://www.w3.org/2000/svg">
<path d="M9.80539 2.69963L11.3004 4.19398M10.7668 1.38317L6.72423 5.42574C6.51535 5.63432 6.37289 5.90007 6.31482 6.1895L5.94141 8.05866L7.81057 7.68455C8.09998 7.62667 8.36539 7.48478 8.57433 7.27584L12.6169 3.23328C12.7384 3.1118 12.8347 2.96758 12.9005 2.80886C12.9662 2.65014 13.0001 2.48002 13.0001 2.30822C13.0001 2.13643 12.9662 1.96631 12.9005 1.80759C12.8347 1.64887 12.7384 1.50465 12.6169 1.38317C12.4954 1.26169 12.3512 1.16533 12.1925 1.09958C12.0338 1.03384 11.8636 1 11.6918 1C11.52 1 11.3499 1.03384 11.1912 1.09958C11.0325 1.16533 10.8883 1.26169 10.7668 1.38317V1.38317Z" stroke="#AAAAAA" stroke-linecap="round" stroke-linejoin="round"/>
<path d="M11.5882 9.47044V11.5881C11.5882 11.9625 11.4394 12.3216 11.1747 12.5863C10.9099 12.8511 10.5508 12.9998 10.1764 12.9998H2.41176C2.03734 12.9998 1.67825 12.8511 1.41349 12.5863C1.14874 12.3216 1 11.9625 1 11.5881V3.82341C1 3.44899 1.14874 3.0899 1.41349 2.82515C1.67825 2.56039 2.03734 2.41165 2.41176 2.41165H4.52939" stroke="#AAAAAA" stroke-linecap="round" stroke-linejoin="round"/>
</svg>
